<svg width="24" height="25" viewBox="0 0 24 25" fill="none" xmlns="http://www.w3.org/2000/svg">
<path d="M18.3 9.07975L19.21 8.17975C19.3983 7.99144 19.5041 7.73605 19.5041 7.46975C19.5041 7.20344 19.3983 6.94805 19.21 6.75975C19.0217 6.57144 18.7663 6.46565 18.5 6.46565C18.2337 6.46565 17.9783 6.57144 17.79 6.75975L16.89 7.66975C15.4886 6.5856 13.7669 5.99738 11.995 5.99738C10.2232 5.99738 8.50147 6.5856 7.10003 7.66975L6.19003 6.74975C6.0004 6.56144 5.74373 6.45618 5.47649 6.45712C5.20925 6.45806 4.95333 6.56512 4.76503 6.75475C4.57672 6.94438 4.47146 7.20104 4.4724 7.46828C4.47334 7.73552 4.5804 7.99144 4.77003 8.17975L5.69003 9.08975C4.59304 10.4873 3.99782 12.2131 4.00003 13.9897C3.99676 15.2652 4.29849 16.5229 4.88005 17.658C5.46161 18.7931 6.30614 19.7728 7.34322 20.5152C8.38029 21.2576 9.57985 21.7413 10.8418 21.926C12.1038 22.1106 13.3917 21.9908 14.598 21.5766C15.8043 21.1624 16.8941 20.4658 17.7764 19.5449C18.6588 18.624 19.3082 17.5054 19.6705 16.2825C20.0328 15.0596 20.0974 13.7678 19.859 12.5149C19.6206 11.2619 19.0861 10.0841 18.3 9.07975ZM12 19.9897C10.8133 19.9897 9.6533 19.6379 8.6666 18.9786C7.67991 18.3193 6.91087 17.3822 6.45675 16.2858C6.00262 15.1895 5.8838 13.9831 6.11531 12.8192C6.34683 11.6553 6.91827 10.5862 7.75739 9.74711C8.5965 8.90799 9.6656 8.33655 10.8295 8.10503C11.9934 7.87352 13.1998 7.99234 14.2961 8.44647C15.3925 8.90059 16.3296 9.66963 16.9888 10.6563C17.6481 11.643 18 12.8031 18 13.9897C18 15.581 17.3679 17.1072 16.2427 18.2324C15.1174 19.3576 13.5913 19.9897 12 19.9897ZM10 4.98975H14C14.2652 4.98975 14.5196 4.88439 14.7071 4.69685C14.8947 4.50932 15 4.25496 15 3.98975C15 3.72453 14.8947 3.47018 14.7071 3.28264C14.5196 3.0951 14.2652 2.98975 14 2.98975H10C9.73481 2.98975 9.48046 3.0951 9.29292 3.28264C9.10538 3.47018 9.00003 3.72453 9.00003 3.98975C9.00003 4.25496 9.10538 4.50932 9.29292 4.69685C9.48046 4.88439 9.73481 4.98975 10 4.98975ZM13 10.9897C13 10.7245 12.8947 10.4702 12.7071 10.2826C12.5196 10.0951 12.2652 9.98975 12 9.98975C11.7348 9.98975 11.4805 10.0951 11.2929 10.2826C11.1054 10.4702 11 10.7245 11 10.9897V12.8797C10.7736 13.0823 10.614 13.3488 10.5423 13.644C10.4707 13.9392 10.4904 14.2492 10.5988 14.533C10.7072 14.8168 10.8992 15.061 11.1494 15.2333C11.3996 15.4055 11.6962 15.4978 12 15.4978C12.3038 15.4978 12.6004 15.4055 12.8507 15.2333C13.1009 15.061 13.2929 14.8168 13.4013 14.533C13.5097 14.2492 13.5294 13.9392 13.4577 13.644C13.3861 13.3488 13.2265 13.0823 13 12.8797V10.9897Z" fill="black"/>
</svg>
